
<svg xmlns="http://www.w3.org/2000/svg" xmlns:xlink="http://www.w3.org/1999/xlink" contentStyleType="text/css" data-diagram-type="ACTIVITY" height="1747.9167px" preserveAspectRatio="none" style="width:710px;height:1747px;" version="1.1" viewBox="0 0 710 1747" width="710.4167px" zoomAndPan="magnify"><title>Solid Spur Gear Manufacturing Flow</title><defs/><g><g class="title" data-source-line="2"><rect fill="none" height="47.168" rx="4.1667" ry="4.1667" style="stroke:#BABDBF;stroke-width:1.0417;" width="447.8333" x="130.0161" y="20.8333"/><text fill="#2FA4E7" font-family="'Verdana'" font-size="20.8333" font-weight="bold" lengthAdjust="spacing" textLength="424.9166" x="141.4744" y="51.6296">Solid Spur Gear Manufacturing Flow</text></g><ellipse cx="172.8994" cy="89.8763" fill="#033C73" rx="10.4167" ry="10.4167" style="stroke:#2683B9;stroke-width:1.0417;"/><rect fill="#CCFFCC" height="145.6706" rx="4.1667" ry="4.1667" style="stroke:#2FA4E7;stroke-width:2.0833;" width="555.2795" x="64.4185" y="110.7096"/><text fill="#2FA4E7" font-family="'Verdana'" font-size="12.5" lengthAdjust="spacing" textLength="62.4878" x="310.8144" y="129.6041">Designing</text><path d="M291.7969,156.5104 L291.7969,191.862 L270.9635,196.0286 L291.7969,200.1953 L291.7969,235.5469 A0,0 0 0 0 291.7969,235.5469 L609.2814,235.5469 A0,0 0 0 0 609.2814,235.5469 L609.2814,166.9271 L598.8647,156.5104 L291.7969,156.5104 A0,0 0 0 0 291.7969,156.5104" fill="#FFF8DC" style="stroke:#000000;stroke-width:1.0417;"/><path d="M598.8647,156.5104 L598.8647,166.9271 L609.2814,166.9271 L598.8647,156.5104" fill="#FFF8DC" style="stroke:#000000;stroke-width:1.0417;"/><text fill="#033C73" font-family="'Verdana'" font-size="12.5" lengthAdjust="spacing" textLength="278.4241" x="303.2552" y="178.5299">Define module, number of teeth, face width,</text><text fill="#033C73" font-family="'Verdana'" font-size="12.5" lengthAdjust="spacing" textLength="281.2195" x="303.2552" y="193.0806">material (AISI 4140 Steel or AISI 1060 Steel),</text><text fill="#033C73" font-family="'Verdana'" font-size="12.5" lengthAdjust="spacing" textLength="182.605" x="303.2552" y="207.6314">and heat-treat requirements.</text><text fill="#033C73" font-family="'Verdana'" font-size="12.5" lengthAdjust="spacing" textLength="258.1299" x="303.2552" y="222.1822">Use CAD and FEA software for validation.</text><rect fill="#FFFFFF" height="37.4674" rx="4.1667" ry="4.1667" style="stroke:#000000;stroke-width:1.0417;" width="196.1283" x="74.8352" y="177.2949"/><text fill="#000000" font-family="'Verdana'" font-size="12.5" lengthAdjust="spacing" textLength="173.2117" x="86.2935" y="200.356">Design &amp; Material Selection</text><rect fill="#CCE5FF" height="745.3451" rx="4.1667" ry="4.1667" style="stroke:#2FA4E7;stroke-width:2.0833;" width="658.0261" x="32.6925" y="266.7969"/><text fill="#2FA4E7" font-family="'Verdana'" font-size="12.5" lengthAdjust="spacing" textLength="63.9648" x="329.7231" y="285.6913">Machining</text><path d="M317.0624,312.5977 L317.0624,333.3984 L296.229,337.5651 L317.0624,341.7318 L317.0624,362.5326 A0,0 0 0 0 317.0624,362.5326 L656.428,362.5326 A0,0 0 0 0 656.428,362.5326 L656.428,323.0143 L646.0114,312.5977 L317.0624,312.5977 A0,0 0 0 0 317.0624,312.5977" fill="#FFF8DC" style="stroke:#000000;stroke-width:1.0417;"/><path d="M646.0114,312.5977 L646.0114,323.0143 L656.428,323.0143 L646.0114,312.5977" fill="#FFF8DC" style="stroke:#000000;stroke-width:1.0417;"/><text fill="#033C73" font-family="'Verdana'" font-size="12.5" lengthAdjust="spacing" textLength="307.074" x="328.5207" y="334.6171">Cut bar or forging to blank length with allowance</text><text fill="#033C73" font-family="'Verdana'" font-size="12.5" lengthAdjust="spacing" textLength="160.2173" x="328.5207" y="349.1679">for facing and machining.</text><rect fill="#FFFFFF" height="37.4674" rx="4.1667" ry="4.1667" style="stroke:#000000;stroke-width:1.0417;" width="246.6593" x="49.5697" y="318.8314"/><text fill="#000000" font-family="'Verdana'" font-size="12.5" lengthAdjust="spacing" textLength="223.7427" x="61.028" y="341.8925">Cut Blank to Length / Prepare Stock</text><path d="M251.2085,398.9909 L251.2085,419.7917 L230.3752,423.9583 L251.2085,428.125 L251.2085,448.9258 A0,0 0 0 0 251.2085,448.9258 L569.755,448.9258 A0,0 0 0 0 569.755,448.9258 L569.755,409.4076 L559.3384,398.9909 L251.2085,398.9909 A0,0 0 0 0 251.2085,398.9909" fill="#FFF8DC" style="stroke:#000000;stroke-width:1.0417;"/><path d="M559.3384,398.9909 L559.3384,409.4076 L569.755,409.4076 L559.3384,398.9909" fill="#FFF8DC" style="stroke:#000000;stroke-width:1.0417;"/><text fill="#033C73" font-family="'Verdana'" font-size="12.5" lengthAdjust="spacing" textLength="286.2549" x="262.6668" y="421.0103">Face both ends and rough the outer diameter</text><text fill="#033C73" font-family="'Verdana'" font-size="12.5" lengthAdjust="spacing" textLength="178.6011" x="262.6668" y="435.5611">close to final size on a lathe.</text><rect fill="#FFFFFF" height="37.4674" rx="4.1667" ry="4.1667" style="stroke:#000000;stroke-width:1.0417;" width="114.9516" x="115.4236" y="405.2246"/><text fill="#000000" font-family="'Verdana'" font-size="12.5" lengthAdjust="spacing" textLength="92.0349" x="126.8819" y="428.2857">Rough Turning</text><path d="M304.1443,485.3841 L304.1443,506.1849 L283.311,510.3516 L304.1443,514.5182 L304.1443,535.319 A0,0 0 0 0 304.1443,535.319 L680.3019,535.319 A0,0 0 0 0 680.3019,535.319 L680.3019,495.8008 L669.8853,485.3841 L304.1443,485.3841 A0,0 0 0 0 304.1443,485.3841" fill="#FFF8DC" style="stroke:#000000;stroke-width:1.0417;"/><path d="M669.8853,485.3841 L669.8853,495.8008 L680.3019,495.8008 L669.8853,485.3841" fill="#FFF8DC" style="stroke:#000000;stroke-width:1.0417;"/><text fill="#033C73" font-family="'Verdana'" font-size="12.5" lengthAdjust="spacing" textLength="343.866" x="315.6026" y="507.4036">Drill and bore the center hole and rough keyway relief,</text><text fill="#033C73" font-family="'Verdana'" font-size="12.5" lengthAdjust="spacing" textLength="173.1262" x="315.6026" y="521.9543">leaving finishing allowance.</text><rect fill="#FFFFFF" height="37.4674" rx="4.1667" ry="4.1667" style="stroke:#000000;stroke-width:1.0417;" width="220.8232" x="62.4878" y="491.6178"/><text fill="#000000" font-family="'Verdana'" font-size="12.5" lengthAdjust="spacing" textLength="197.9065" x="73.9461" y="514.679">Rough Bore &amp; Internal Features</text><path d="M292.2485,571.7773 L292.2485,592.5781 L271.4152,596.7448 L292.2485,600.9115 L292.2485,621.7122 A0,0 0 0 0 292.2485,621.7122 L577.3783,621.7122 A0,0 0 0 0 577.3783,621.7122 L577.3783,582.194 L566.9617,571.7773 L292.2485,571.7773 A0,0 0 0 0 292.2485,571.7773" fill="#FFF8DC" style="stroke:#000000;stroke-width:1.0417;"/><path d="M566.9617,571.7773 L566.9617,582.194 L577.3783,582.194 L566.9617,571.7773" fill="#FFF8DC" style="stroke:#000000;stroke-width:1.0417;"/><text fill="#033C73" font-family="'Verdana'" font-size="12.5" lengthAdjust="spacing" textLength="244.751" x="303.7069" y="593.7968">Relieve stresses from rough machining</text><text fill="#033C73" font-family="'Verdana'" font-size="12.5" lengthAdjust="spacing" textLength="252.8381" x="303.7069" y="608.3476">to minimize distortion during hardening.</text><rect fill="#FFFFFF" height="37.4674" rx="4.1667" ry="4.1667" style="stroke:#000000;stroke-width:1.0417;" width="197.0317" x="74.3835" y="578.0111"/><text fill="#000000" font-family="'Verdana'" font-size="12.5" lengthAdjust="spacing" textLength="174.115" x="85.8419" y="601.0722">Pre-Heat-Treat Stress Relief</text><path d="M286.1694,658.1706 L286.1694,678.9714 L265.3361,683.138 L286.1694,687.3047 L286.1694,708.1055 A0,0 0 0 0 286.1694,708.1055 L646.3053,708.1055 A0,0 0 0 0 646.3053,708.1055 L646.3053,668.5872 L635.8887,658.1706 L286.1694,658.1706 A0,0 0 0 0 286.1694,658.1706" fill="#FFF8DC" style="stroke:#000000;stroke-width:1.0417;"/><path d="M635.8887,658.1706 L635.8887,668.5872 L646.3053,668.5872 L635.8887,658.1706" fill="#FFF8DC" style="stroke:#000000;stroke-width:1.0417;"/><text fill="#033C73" font-family="'Verdana'" font-size="12.5" lengthAdjust="spacing" textLength="327.8442" x="297.6278" y="680.19">Generate external gear teeth by hobbing or shaping</text><text fill="#033C73" font-family="'Verdana'" font-size="12.5" lengthAdjust="spacing" textLength="182.8979" x="297.6278" y="694.7408">based on production volume.</text><rect fill="#FFFFFF" height="37.4674" rx="4.1667" ry="4.1667" style="stroke:#000000;stroke-width:1.0417;" width="184.8735" x="80.4626" y="664.4043"/><text fill="#000000" font-family="'Verdana'" font-size="12.5" lengthAdjust="spacing" textLength="161.9568" x="91.921" y="687.4654">Primary Tooth Generation</text><path d="M236.7645,801.8392 L236.7645,815.3646 L215.9312,819.5313 L236.7645,823.6979 L236.7645,837.2233 A0,0 0 0 0 236.7645,837.2233 L609.669,837.2233 A0,0 0 0 0 609.669,837.2233 L609.669,812.2559 L599.2523,801.8392 L236.7645,801.8392 A0,0 0 0 0 236.7645,801.8392" fill="#FFF8DC" style="stroke:#000000;stroke-width:1.0417;"/><path d="M599.2523,801.8392 L599.2523,812.2559 L609.669,812.2559 L599.2523,801.8392" fill="#FFF8DC" style="stroke:#000000;stroke-width:1.0417;"/><text fill="#033C73" font-family="'Verdana'" font-size="12.5" lengthAdjust="spacing" textLength="340.6128" x="248.2229" y="823.8586">Cut internal spline or keyway using a broaching press.</text><rect fill="#FFFFFF" height="37.4674" rx="4.1667" ry="4.1667" style="stroke:#000000;stroke-width:1.0417;" width="86.0636" x="129.8676" y="800.7975"/><text fill="#000000" font-family="'Verdana'" font-size="12.5" lengthAdjust="spacing" textLength="63.147" x="141.3259" y="823.8586">Broaching</text><polygon fill="#FFFFFF" points="63.1958,744.5638,282.6029,744.5638,295.1029,757.0638,282.6029,769.5638,63.1958,769.5638,50.6958,757.0638,63.1958,744.5638" style="stroke:#000000;stroke-width:1.0417;"/><text fill="#343A40" font-family="'Verdana'" font-size="12.5" lengthAdjust="spacing" textLength="21.6003" x="182.2744" y="786.3749">yes</text><text fill="#000000" font-family="'Verdana'" font-size="12.5" lengthAdjust="spacing" textLength="208.9905" x="68.4041" y="761.3912">Internal splines or keys required?</text><polygon fill="#FFFFFF" points="172.8994,879.9154,185.3994,892.4154,172.8994,904.9154,160.3994,892.4154,172.8994,879.9154" style="stroke:#000000;stroke-width:1.0417;"/><path d="M323.5229,941.3737 L323.5229,962.1745 L302.6896,966.3411 L323.5229,970.5078 L323.5229,991.3086 A0,0 0 0 0 323.5229,991.3086 L557.7128,991.3086 A0,0 0 0 0 557.7128,991.3086 L557.7128,951.7904 L547.2961,941.3737 L323.5229,941.3737 A0,0 0 0 0 323.5229,941.3737" fill="#FFF8DC" style="stroke:#000000;stroke-width:1.0417;"/><path d="M547.2961,941.3737 L547.2961,951.7904 L557.7128,951.7904 L547.2961,941.3737" fill="#FFF8DC" style="stroke:#000000;stroke-width:1.0417;"/><text fill="#033C73" font-family="'Verdana'" font-size="12.5" lengthAdjust="spacing" textLength="196.2769" x="334.9813" y="963.3931">Remove burrs and sharp edges</text><text fill="#033C73" font-family="'Verdana'" font-size="12.5" lengthAdjust="spacing" textLength="201.8982" x="334.9813" y="977.9439">after tooth cutting or broaching.</text><rect fill="#FFFFFF" height="37.4674" rx="4.1667" ry="4.1667" style="stroke:#000000;stroke-width:1.0417;" width="259.5805" x="43.1091" y="947.6074"/><text fill="#000000" font-family="'Verdana'" font-size="12.5" lengthAdjust="spacing" textLength="236.6638" x="54.5675" y="970.6685">Rough Deburring / Vibratory Finishing</text><rect fill="#FFD580" height="116.569" rx="4.1667" ry="4.1667" style="stroke:#2FA4E7;stroke-width:2.0833;" width="452.8381" x="101.354" y="1022.5586"/><text fill="#2FA4E7" font-family="'Verdana'" font-size="12.5" lengthAdjust="spacing" textLength="99.3408" x="278.1026" y="1041.453">Heat Treatment</text><path d="M254.8615,1068.3594 L254.8615,1089.1602 L234.0281,1093.3268 L254.8615,1097.4935 L254.8615,1118.2943 A0,0 0 0 0 254.8615,1118.2943 L543.7754,1118.2943 A0,0 0 0 0 543.7754,1118.2943 L543.7754,1078.776 L533.3588,1068.3594 L254.8615,1068.3594 A0,0 0 0 0 254.8615,1068.3594" fill="#FFF8DC" style="stroke:#000000;stroke-width:1.0417;"/><path d="M533.3588,1068.3594 L533.3588,1078.776 L543.7754,1078.776 L533.3588,1068.3594" fill="#FFF8DC" style="stroke:#000000;stroke-width:1.0417;"/><text fill="#033C73" font-family="'Verdana'" font-size="12.5" lengthAdjust="spacing" textLength="253.7292" x="266.3198" y="1090.3788">Harden gear surfaces or through-harden</text><text fill="#033C73" font-family="'Verdana'" font-size="12.5" lengthAdjust="spacing" textLength="256.6223" x="266.3198" y="1104.9296">to achieve strength and wear resistance.</text><rect fill="#FFFFFF" height="37.4674" rx="4.1667" ry="4.1667" style="stroke:#000000;stroke-width:1.0417;" width="122.2575" x="111.7706" y="1074.5931"/><text fill="#000000" font-family="'Verdana'" font-size="12.5" lengthAdjust="spacing" textLength="99.3408" x="123.229" y="1097.6542">Heat Treatment</text><rect fill="#E6CCFF" height="289.3555" rx="4.1667" ry="4.1667" style="stroke:#2FA4E7;stroke-width:2.0833;" width="688.0737" x="11.4583" y="1149.5443"/><text fill="#2FA4E7" font-family="'Verdana'" font-size="12.5" lengthAdjust="spacing" textLength="55.8228" x="327.5838" y="1168.4387">Finishing</text><path d="M300.6378,1195.3451 L300.6378,1216.1458 L279.8045,1220.3125 L300.6378,1224.4792 L300.6378,1245.2799 A0,0 0 0 0 300.6378,1245.2799 L597.1385,1245.2799 A0,0 0 0 0 597.1385,1245.2799 L597.1385,1205.7617 L586.7218,1195.3451 L300.6378,1195.3451 A0,0 0 0 0 300.6378,1195.3451" fill="#FFF8DC" style="stroke:#000000;stroke-width:1.0417;"/><path d="M586.7218,1195.3451 L586.7218,1205.7617 L597.1385,1205.7617 L586.7218,1195.3451" fill="#FFF8DC" style="stroke:#000000;stroke-width:1.0417;"/><text fill="#033C73" font-family="'Verdana'" font-size="12.5" lengthAdjust="spacing" textLength="241.0278" x="312.0962" y="1217.3645">Finish bore and hub to final tolerances</text><text fill="#033C73" font-family="'Verdana'" font-size="12.5" lengthAdjust="spacing" textLength="264.209" x="312.0962" y="1231.9153">after heat-treatment distortion correction.</text><rect fill="#FFFFFF" height="37.4674" rx="4.1667" ry="4.1667" style="stroke:#000000;stroke-width:1.0417;" width="213.8102" x="65.9943" y="1201.5788"/><text fill="#000000" font-family="'Verdana'" font-size="12.5" lengthAdjust="spacing" textLength="190.8936" x="77.4526" y="1224.6399">Finish Machining of Bore / Hub</text><path d="M269.812,1281.7383 L269.812,1302.5391 L248.9787,1306.7057 L269.812,1310.8724 L269.812,1331.6732 A0,0 0 0 0 269.812,1331.6732 L546.3114,1331.6732 A0,0 0 0 0 546.3114,1331.6732 L546.3114,1292.1549 L535.8948,1281.7383 L269.812,1281.7383 A0,0 0 0 0 269.812,1281.7383" fill="#FFF8DC" style="stroke:#000000;stroke-width:1.0417;"/><path d="M535.8948,1281.7383 L535.8948,1292.1549 L546.3114,1292.1549 L535.8948,1281.7383" fill="#FFF8DC" style="stroke:#000000;stroke-width:1.0417;"/><text fill="#033C73" font-family="'Verdana'" font-size="12.5" lengthAdjust="spacing" textLength="244.2078" x="281.2703" y="1303.7577">Grind, hone, or shave teeth to improve</text><text fill="#033C73" font-family="'Verdana'" font-size="12.5" lengthAdjust="spacing" textLength="175.708" x="281.2703" y="1318.3085">accuracy and surface finish.</text><rect fill="#FFFFFF" height="37.4674" rx="4.1667" ry="4.1667" style="stroke:#000000;stroke-width:1.0417;" width="152.1586" x="96.8201" y="1287.972"/><text fill="#000000" font-family="'Verdana'" font-size="12.5" lengthAdjust="spacing" textLength="129.2419" x="108.2784" y="1311.0331">Final Tooth Finishing</text><path d="M344.7571,1368.1315 L344.7571,1388.9323 L323.9237,1393.099 L344.7571,1397.2656 L344.7571,1418.0664 A0,0 0 0 0 344.7571,1418.0664 L689.1154,1418.0664 A0,0 0 0 0 689.1154,1418.0664 L689.1154,1378.5482 L678.6987,1368.1315 L344.7571,1368.1315 A0,0 0 0 0 344.7571,1368.1315" fill="#FFF8DC" style="stroke:#000000;stroke-width:1.0417;"/><path d="M678.6987,1368.1315 L678.6987,1378.5482 L689.1154,1378.5482 L678.6987,1368.1315" fill="#FFF8DC" style="stroke:#000000;stroke-width:1.0417;"/><text fill="#033C73" font-family="'Verdana'" font-size="12.5" lengthAdjust="spacing" textLength="312.0667" x="356.2154" y="1390.151">Apply surface strengthening or protective coating</text><text fill="#033C73" font-family="'Verdana'" font-size="12.5" lengthAdjust="spacing" textLength="279.9438" x="356.2154" y="1404.7017">to enhance fatigue and corrosion resistance.</text><rect fill="#FFFFFF" height="37.4674" rx="4.1667" ry="4.1667" style="stroke:#000000;stroke-width:1.0417;" width="302.0487" x="21.875" y="1374.3652"/><text fill="#000000" font-family="'Verdana'" font-size="12.5" lengthAdjust="spacing" textLength="279.1321" x="33.3333" y="1397.4264">Surface Treatment / Shot-Peening (Optional)</text><rect fill="#FFF2CC" height="116.569" rx="4.1667" ry="4.1667" style="stroke:#2FA4E7;stroke-width:2.0833;" width="487.0483" x="101.8972" y="1449.3164"/><text fill="#2FA4E7" font-family="'Verdana'" font-size="12.5" lengthAdjust="spacing" textLength="64.563" x="313.1399" y="1468.2109">Inspection</text><path d="M254.3182,1495.1172 L254.3182,1515.918 L233.4849,1520.0846 L254.3182,1524.2513 L254.3182,1545.0521 A0,0 0 0 0 254.3182,1545.0521 L578.5288,1545.0521 A0,0 0 0 0 578.5288,1545.0521 L578.5288,1505.5339 L568.1122,1495.1172 L254.3182,1495.1172 A0,0 0 0 0 254.3182,1495.1172" fill="#FFF8DC" style="stroke:#000000;stroke-width:1.0417;"/><path d="M568.1122,1495.1172 L568.1122,1505.5339 L578.5288,1505.5339 L568.1122,1495.1172" fill="#FFF8DC" style="stroke:#000000;stroke-width:1.0417;"/><text fill="#033C73" font-family="'Verdana'" font-size="12.5" lengthAdjust="spacing" textLength="291.9189" x="265.7766" y="1517.1366">Check tooth accuracy, runout, and dimensions</text><text fill="#033C73" font-family="'Verdana'" font-size="12.5" lengthAdjust="spacing" textLength="200.8545" x="265.7766" y="1531.6874">using precision inspection tools.</text><rect fill="#FFFFFF" height="37.4674" rx="4.1667" ry="4.1667" style="stroke:#000000;stroke-width:1.0417;" width="121.1711" x="112.3138" y="1501.3509"/><text fill="#000000" font-family="'Verdana'" font-size="12.5" lengthAdjust="spacing" textLength="98.2544" x="123.7722" y="1524.412">Final Inspection</text><rect fill="#FFCCCC" height="116.569" rx="4.1667" ry="4.1667" style="stroke:#2FA4E7;stroke-width:2.0833;" width="489.3616" x="75.1058" y="1576.3021"/><text fill="#2FA4E7" font-family="'Verdana'" font-size="12.5" lengthAdjust="spacing" textLength="64.2334" x="287.6699" y="1595.1965">Packaging</text><path d="M281.1096,1622.1029 L281.1096,1642.9036 L260.2763,1647.0703 L281.1096,1651.237 L281.1096,1672.0378 A0,0 0 0 0 281.1096,1672.0378 L554.0507,1672.0378 A0,0 0 0 0 554.0507,1672.0378 L554.0507,1632.5195 L543.634,1622.1029 L281.1096,1622.1029 A0,0 0 0 0 281.1096,1622.1029" fill="#FFF8DC" style="stroke:#000000;stroke-width:1.0417;"/><path d="M543.634,1622.1029 L543.634,1632.5195 L554.0507,1632.5195 L543.634,1622.1029" fill="#FFF8DC" style="stroke:#000000;stroke-width:1.0417;"/><text fill="#033C73" font-family="'Verdana'" font-size="12.5" lengthAdjust="spacing" textLength="240.6494" x="292.568" y="1644.1223">Apply protective oil and pack carefully</text><text fill="#033C73" font-family="'Verdana'" font-size="12.5" lengthAdjust="spacing" textLength="238.3545" x="292.568" y="1658.6731">to prevent rust and handling damage.</text><rect fill="#FFFFFF" height="37.4674" rx="4.1667" ry="4.1667" style="stroke:#000000;stroke-width:1.0417;" width="174.7538" x="85.5225" y="1628.3366"/><text fill="#000000" font-family="'Verdana'" font-size="12.5" lengthAdjust="spacing" textLength="151.8372" x="96.9808" y="1651.3977">Packaging &amp; Lubrication</text><ellipse cx="172.8994" cy="1725.1628" fill="none" rx="11.4583" ry="11.4583" style="stroke:#2683B9;stroke-width:1.0417;"/><ellipse cx="172.8994" cy="1725.1628" fill="none" rx="6.25" ry="6.25" style="stroke:#2683B9;stroke-width:1.0417;"/><line style="stroke:#2FA4E7;stroke-width:3.125;" x1="172.8994" x2="172.8994" y1="100.293" y2="177.2949"/><polygon fill="#2FA4E7" points="168.7327,166.8783,172.8994,177.2949,177.066,166.8783,172.8994,171.0449" style="stroke:#2FA4E7;stroke-width:1.0417;"/><line style="stroke:#2FA4E7;stroke-width:3.125;" x1="172.8994" x2="172.8994" y1="356.2988" y2="405.2246"/><polygon fill="#2FA4E7" points="168.7327,394.8079,172.8994,405.2246,177.066,394.8079,172.8994,398.9746" style="stroke:#2FA4E7;stroke-width:1.0417;"/><line style="stroke:#2FA4E7;stroke-width:3.125;" x1="172.8994" x2="172.8994" y1="442.6921" y2="491.6178"/><polygon fill="#2FA4E7" points="168.7327,481.2012,172.8994,491.6178,177.066,481.2012,172.8994,485.3678" style="stroke:#2FA4E7;stroke-width:1.0417;"/><line style="stroke:#2FA4E7;stroke-width:3.125;" x1="172.8994" x2="172.8994" y1="529.0853" y2="578.0111"/><polygon fill="#2FA4E7" points="168.7327,567.5944,172.8994,578.0111,177.066,567.5944,172.8994,571.7611" style="stroke:#2FA4E7;stroke-width:1.0417;"/><line style="stroke:#2FA4E7;stroke-width:3.125;" x1="172.8994" x2="172.8994" y1="615.4785" y2="664.4043"/><polygon fill="#2FA4E7" points="168.7327,653.9876,172.8994,664.4043,177.066,653.9876,172.8994,658.1543" style="stroke:#2FA4E7;stroke-width:1.0417;"/><line style="stroke:#2FA4E7;stroke-width:3.125;" x1="172.8994" x2="172.8994" y1="769.5638" y2="800.7975"/><polygon fill="#2FA4E7" points="168.7327,790.3809,172.8994,800.7975,177.066,790.3809,172.8994,794.5475" style="stroke:#2FA4E7;stroke-width:1.0417;"/><line style="stroke:#2FA4E7;stroke-width:3.125;" x1="295.1029" x2="620.0857" y1="757.0638" y2="757.0638"/><polygon fill="#2FA4E7" points="615.919,814.3229,620.0857,824.7396,624.2523,814.3229,620.0857,818.4896" style="stroke:#2FA4E7;stroke-width:3.125;"/><line style="stroke:#2FA4E7;stroke-width:3.125;" x1="620.0857" x2="620.0857" y1="757.0638" y2="892.4154"/><line style="stroke:#2FA4E7;stroke-width:3.125;" x1="620.0857" x2="185.3994" y1="892.4154" y2="892.4154"/><polygon fill="#2FA4E7" points="195.816,888.2487,185.3994,892.4154,195.816,896.582,191.6494,892.4154" style="stroke:#2FA4E7;stroke-width:1.0417;"/><line style="stroke:#2FA4E7;stroke-width:3.125;" x1="172.8994" x2="172.8994" y1="838.265" y2="879.9154"/><polygon fill="#2FA4E7" points="168.7327,869.4987,172.8994,879.9154,177.066,869.4987,172.8994,873.6654" style="stroke:#2FA4E7;stroke-width:1.0417;"/><line style="stroke:#2FA4E7;stroke-width:3.125;" x1="172.8994" x2="172.8994" y1="701.8717" y2="744.5638"/><polygon fill="#2FA4E7" points="168.7327,734.1471,172.8994,744.5638,177.066,734.1471,172.8994,738.3138" style="stroke:#2FA4E7;stroke-width:1.0417;"/><line style="stroke:#2FA4E7;stroke-width:3.125;" x1="172.8994" x2="172.8994" y1="904.9154" y2="947.6074"/><polygon fill="#2FA4E7" points="168.7327,937.1908,172.8994,947.6074,177.066,937.1908,172.8994,941.3574" style="stroke:#2FA4E7;stroke-width:1.0417;"/><line style="stroke:#2FA4E7;stroke-width:3.125;" x1="172.8994" x2="172.8994" y1="214.7624" y2="318.8314"/><polygon fill="#2FA4E7" points="168.7327,308.4147,172.8994,318.8314,177.066,308.4147,172.8994,312.5814" style="stroke:#2FA4E7;stroke-width:1.0417;"/><line style="stroke:#2FA4E7;stroke-width:3.125;" x1="172.8994" x2="172.8994" y1="985.0749" y2="1074.5931"/><polygon fill="#2FA4E7" points="168.7327,1064.1764,172.8994,1074.5931,177.066,1064.1764,172.8994,1068.3431" style="stroke:#2FA4E7;stroke-width:1.0417;"/><line style="stroke:#2FA4E7;stroke-width:3.125;" x1="172.8994" x2="172.8994" y1="1239.0462" y2="1287.972"/><polygon fill="#2FA4E7" points="168.7327,1277.5553,172.8994,1287.972,177.066,1277.5553,172.8994,1281.722" style="stroke:#2FA4E7;stroke-width:1.0417;"/><line style="stroke:#2FA4E7;stroke-width:3.125;" x1="172.8994" x2="172.8994" y1="1325.4395" y2="1374.3652"/><polygon fill="#2FA4E7" points="168.7327,1363.9486,172.8994,1374.3652,177.066,1363.9486,172.8994,1368.1152" style="stroke:#2FA4E7;stroke-width:1.0417;"/><line style="stroke:#2FA4E7;stroke-width:3.125;" x1="172.8994" x2="172.8994" y1="1112.0605" y2="1201.5788"/><polygon fill="#2FA4E7" points="168.7327,1191.1621,172.8994,1201.5788,177.066,1191.1621,172.8994,1195.3288" style="stroke:#2FA4E7;stroke-width:1.0417;"/><line style="stroke:#2FA4E7;stroke-width:3.125;" x1="172.8994" x2="172.8994" y1="1411.8327" y2="1501.3509"/><polygon fill="#2FA4E7" points="168.7327,1490.9342,172.8994,1501.3509,177.066,1490.9342,172.8994,1495.1009" style="stroke:#2FA4E7;stroke-width:1.0417;"/><line style="stroke:#2FA4E7;stroke-width:3.125;" x1="172.8994" x2="172.8994" y1="1538.8184" y2="1628.3366"/><polygon fill="#2FA4E7" points="168.7327,1617.9199,172.8994,1628.3366,177.066,1617.9199,172.8994,1622.0866" style="stroke:#2FA4E7;stroke-width:1.0417;"/><line style="stroke:#2FA4E7;stroke-width:3.125;" x1="172.8994" x2="172.8994" y1="1665.804" y2="1713.7044"/><polygon fill="#2FA4E7" points="168.7327,1703.2878,172.8994,1713.7044,177.066,1703.2878,172.8994,1707.4544" style="stroke:#2FA4E7;stroke-width:1.0417;"/><!--SRC=[ZLPTRzis57tthxXBWI41d2OTsgBO7eR4Zf80BHhKsVPCIPH4c28rVjZpXlttdalQIZAvnLu4cUIzz-YSSo_zG-XaBwcIBcefpBcDGIiZPq45BMbbjQffDKH7jr8u-YHCR4GLebEcfKBRxMpcryeCmecUiA4sAkpedndHjQZMhRFHr0khhQC_EXKahrjNIvVNhZKEOQsm9hnSMNMYjbikqWZjvUpVvtMC3V9eZLT5KNnOBevMuGn1k32RELa5OLfytibIUjKQb3cXLuj5KImMAU_FUPr-n0S7wPJGj98QOSgQNx2V03ZLTW4_bh81OTJR6WpEoSI-b8viGq7AqCtn0PMahQhnZjFz8U7frVtgdjw-UNj9AvpK1AHfwStb-_tIsPmG8KnDdHJXF3WyoSa_etBGp0J_6jk_UKcBgsKwLjnSaRTDs0edgK72ZO1-Wc7pKOaZ39svU4R29r5rQYJXvbrHP18MCJ1tPat1qaTfsj3H1JquEN3wLR3LUa86nvGm2cgZVii28hXCMNHEiLLu20tl25En8nWeIEAp_17z0SuBo0peYurjHu_HyUwaTC4ybnR94UHJAfS2u722hI5AhKGlyOBJbROW3jWW7jJmwcySCYH82vp_HccuIi8KzmOvEAg08D59F_M4Kred22M7C89ASXHr5fG_OLlBtLRi8AfMic5_e0atoVQWm7U9amDL4r2GuloEdV6OdB62GRodBodN159QtaZowPJqr3ZRxr6CbECSAEdntZCXjVB1EhOFrRdbEu6-EYhEWrEzS3jwj2p1hJJIYQFzij-I9F_QqzZoQ4dTGkKE39Kbbu8hV2U6ZAeKNjOiqE3GPwaHQMDrx2Uig8PEHu7ymCFCSoumxG_DK_zwnfeOEjr9VuOWuBzsDh6GZFKVoDdNwcNMVLAMB_ea59M77809ab-dq15SUbNDCpyjPHbTulM2VbSbMB5Wi3X8VqJ3ta923ie61q5k85ctqlEaQDXX8GbGnH3sB8welZC3s4QKRCI3vOGdwVBTXyiy25vkJb3T9Kza5NrqFEyIuw5BxZhFdidMOY075wPfm5-nvKWG1hTDVFuIvaWD4DwyvucT4UPr6YSPZz_Kh1Tq5ylfgCZ7Ks-cyHhBfr4GqA6ESJnH-ZH-cO3dRL5Pv_AzC6c88cNBxV1jIMyXVps7wGtkZcnvq9ER0P1K3yDls3kYgg8JrIxhdcdUJub9wTL-UzGCFAmw6yuVP6fUElqyC6QXpoQ0heP1xyO21vro6F01Jk0F1iZAYZ3E36awvWo3FAWsPbgP7EkPflybxhtnG-Oo-Q_uwN0RPoQVjgUtJYUhzTxu1vxcvAB1s9ydABK23Go5HStjYXQjL4AdnioSG_llO7p0NmdHPWFotuK3n74TryF7M3fL7Hz-cTrd95gLxua12QZ2nTf4hNUPKo3Si7Wk-f1zYeVc8hNeHJlX4guSlW80]--></g></svg>